<svg width="72" height="72" viewBox="0 0 72 72" fill="none" xmlns="http://www.w3.org/2000/svg">
<path d="M25.4083 49.6665C18.1636 49.6665 12.2908 43.7937 12.2908 36.549C12.2908 29.3043 18.1636 23.4311 25.4083 23.4311C32.653 23.4311 38.5258 29.3043 38.5258 36.549C38.5258 43.7937 32.653 49.6665 25.4083 49.6665ZM25.4083 14.1249C13.0237 14.1249 2.98413 24.1644 2.98413 36.549C2.98413 48.9332 13.0237 58.9728 25.4083 58.9728C37.7928 58.9728 47.8324 48.9332 47.8324 36.549C47.8324 24.1644 37.7928 14.1249 25.4083 14.1249Z" fill="#59CAF5"/>
<path d="M46.5759 49.6664C39.3312 49.6664 33.4584 43.7937 33.4584 36.5489C33.4584 29.3042 39.3312 23.4311 46.5759 23.4311C53.8206 23.4311 59.6934 29.3042 59.6934 36.5489C59.6934 43.7937 53.8206 49.6664 46.5759 49.6664ZM46.5759 14.1248C34.1913 14.1248 24.1517 24.1644 24.1517 36.5489C24.1517 48.9331 34.1913 58.9727 46.5759 58.9727C58.9604 58.9727 69 48.9331 69 36.5489C69 24.1644 58.9604 14.1248 46.5759 14.1248Z" fill="#99DEF9"/>
<path d="M35.9921 44.2959C34.1281 46.8381 31.3713 48.6828 28.1832 49.3699C30.1985 52.2558 32.8727 54.647 35.9921 56.3201C39.1115 54.647 41.7857 52.2558 43.801 49.3699C40.6129 48.6828 37.8561 46.8381 35.9921 44.2959Z" fill="#59CAF5"/>
</svg>
