<svg width="84" height="33" viewBox="0 0 84 33" fill="none" xmlns="http://www.w3.org/2000/svg">
<g clip-path="url(#clip0_18_253)">
<path d="M4.73767 25.6951H6.158V32.8969H4.73767V25.6951Z" fill="white"/>
<path d="M10.8677 26.827H8.33264V25.6951H14.8235V26.827H12.2884V32.8969H10.8677V26.827Z" fill="white"/>
<path d="M21.9973 25.8803C21.5343 26.0723 21.1885 26.3314 20.959 26.6574C20.7295 26.9832 20.6148 27.3449 20.6148 27.7426C20.6148 28.2157 20.744 28.5913 21.0027 28.8691C21.2614 29.1471 21.571 29.351 21.9315 29.4811C22.2922 29.6118 22.7637 29.7422 23.3469 29.8725C23.762 29.9686 24.0898 30.054 24.3303 30.1294C24.5704 30.2053 24.7689 30.3095 24.9258 30.4434C25.0822 30.577 25.1608 30.7466 25.1608 30.9526C25.1608 31.2339 25.0204 31.4602 24.7399 31.6317C24.4595 31.8031 24.035 31.8889 23.4671 31.8889C23.0079 31.8889 22.5507 31.8154 22.0954 31.6675C21.6401 31.5203 21.2557 31.3298 20.9426 31.0966L20.4509 32.1359C20.7716 32.3964 21.2067 32.6057 21.7568 32.7633C22.3067 32.921 22.8769 33 23.4671 33C24.1372 33 24.7053 32.9039 25.1716 32.7119C25.6378 32.5199 25.9858 32.2628 26.2153 31.9402C26.4446 31.6179 26.5595 31.2581 26.5595 30.8601C26.5595 30.3936 26.4299 30.0232 26.1714 29.7489C25.9129 29.4743 25.6014 29.2706 25.2371 29.1368C24.8729 29.003 24.4067 28.8744 23.8384 28.7509C23.4232 28.6548 23.0954 28.5694 22.8548 28.4937C22.6147 28.4182 22.4159 28.3153 22.2593 28.185C22.1028 28.0547 22.0245 27.8866 22.0245 27.6808C22.0245 27.3861 22.1612 27.1493 22.4343 26.9708C22.7075 26.7926 23.1244 26.7035 23.6855 26.7035C24.028 26.7035 24.381 26.7516 24.7455 26.8476C25.1095 26.9436 25.4592 27.084 25.7944 27.2692L26.2425 26.2302C25.9147 26.0247 25.5248 25.8667 25.0733 25.7569C24.6215 25.6475 24.1624 25.5922 23.6964 25.5922C23.0261 25.5922 22.4596 25.6883 21.9973 25.8803Z" fill="white"/>
<path d="M29.9579 27.7016C29.4842 27.9415 29.1147 28.2743 28.8487 28.6993C28.5826 29.1248 28.45 29.6083 28.45 30.1503C28.45 30.692 28.5826 31.1773 28.8487 31.6059C29.1147 32.0346 29.4842 32.369 29.9579 32.6092C30.4314 32.8493 30.9634 32.9691 31.5534 32.9691C32.1505 32.9691 32.686 32.8493 33.1598 32.6092C33.633 32.369 34.003 32.0346 34.2689 31.6059C34.5348 31.1773 34.6678 30.692 34.6678 30.1503C34.6678 29.6083 34.5348 29.1248 34.2689 28.6993C34.003 28.2743 33.633 27.9415 33.1598 27.7016C32.686 27.4616 32.1505 27.3413 31.5534 27.3413C30.9634 27.3413 30.4314 27.4616 29.9579 27.7016ZM30.3129 31.3952C29.9888 31.0797 29.8267 30.6644 29.8267 30.1503C29.8267 29.6357 29.9888 29.2208 30.3129 28.9053C30.6372 28.5898 31.0507 28.4319 31.5534 28.4319C32.0561 28.4319 32.4712 28.5898 32.7991 28.9053C33.1268 29.2208 33.2908 29.6357 33.2908 30.1503C33.2908 30.6644 33.1268 31.0797 32.7991 31.3952C32.4712 31.7105 32.0561 31.8681 31.5534 31.8681C31.0507 31.8681 30.6372 31.7105 30.3129 31.3952Z" fill="white"/>
<path d="M37.0715 32.8971H38.4375V25.2631H37.0715V32.8971Z" fill="white"/>
<path d="M45.6056 27.403V30.181C45.6056 30.7159 45.4617 31.126 45.1742 31.4106C44.8862 31.695 44.4982 31.8373 44.0103 31.8373C43.5732 31.8373 43.2362 31.7156 42.9996 31.4722C42.7627 31.2287 42.6446 30.8601 42.6446 30.3662V27.403H41.2784V30.541C41.2784 31.3434 41.5026 31.9488 41.9504 32.3569C42.3985 32.765 43.0122 32.9691 43.7917 32.9691C44.1706 32.9691 44.5241 32.9024 44.8517 32.7685C45.1795 32.6345 45.4529 32.4443 45.6716 32.1976V32.8971H46.9717V27.403H45.6056Z" fill="white"/>
<path d="M50.0425 26.189V27.4443H49.0809V28.4731H50.0425V31.1174C50.0425 31.7209 50.2174 32.1803 50.567 32.4958C50.9167 32.8113 51.4119 32.9691 52.0532 32.9691C52.308 32.9691 52.5504 32.9382 52.7799 32.8765C53.0092 32.8148 53.2041 32.7222 53.3645 32.5987L52.982 31.6829C52.778 31.834 52.523 31.9095 52.2171 31.9095C51.9547 31.9095 51.7542 31.8391 51.6162 31.6983C51.4777 31.558 51.4082 31.3538 51.4082 31.0865V28.4731H52.971V27.4443H51.4082V26.189H50.0425Z" fill="white"/>
<path d="M55.6484 25.1755C55.4806 25.3234 55.3969 25.5068 55.3969 25.726C55.3969 25.9455 55.4806 26.1289 55.6484 26.2765C55.8158 26.424 56.0234 26.4975 56.2711 26.4975C56.5261 26.4975 56.7356 26.4203 56.8995 26.2662C57.0634 26.1118 57.1452 25.9217 57.1452 25.6951C57.1452 25.4827 57.0616 25.3061 56.894 25.1654C56.7264 25.0248 56.5186 24.9544 56.2711 24.9544C56.0234 24.9544 55.8158 25.0283 55.6484 25.1755ZM55.5826 32.8971H56.9486V27.403H55.5826V32.8971Z" fill="white"/>
<path d="M60.8606 27.7016C60.387 27.9415 60.0173 28.2743 59.7514 28.6993C59.4853 29.1248 59.3527 29.6083 59.3527 30.1503C59.3527 30.692 59.4853 31.1773 59.7514 31.6059C60.0173 32.0346 60.387 32.369 60.8606 32.6092C61.334 32.8493 61.8659 32.9691 62.4561 32.9691C63.0532 32.9691 63.5887 32.8493 64.0624 32.6092C64.5357 32.369 64.9056 32.0346 65.1714 31.6059C65.4373 31.1773 65.5705 30.692 65.5705 30.1503C65.5705 29.6083 65.4373 29.1248 65.1714 28.6993C64.9056 28.2743 64.5357 27.9415 64.0624 27.7016C63.5887 27.4616 63.0532 27.3413 62.4561 27.3413C61.8659 27.3413 61.334 27.4616 60.8606 27.7016ZM61.2156 31.3952C60.8913 31.0797 60.7293 30.6644 60.7293 30.1503C60.7293 29.6357 60.8913 29.2208 61.2156 28.9053C61.5399 28.5898 61.9534 28.4319 62.4561 28.4319C62.9586 28.4319 63.3739 28.5898 63.7017 28.9053C64.0295 29.2208 64.1935 29.6357 64.1935 30.1503C64.1935 30.6644 64.0295 31.0797 63.7017 31.3952C63.3739 31.7105 62.9586 31.8681 62.4561 31.8681C61.9534 31.8681 61.5399 31.7105 61.2156 31.3952Z" fill="white"/>
<path d="M70.127 27.5369C69.7843 27.667 69.5004 27.859 69.2746 28.113V27.403H67.9742V32.8971H69.3402V30.1193C69.3402 29.5842 69.4859 29.1745 69.7773 28.8898C70.0684 28.6052 70.4656 28.4628 70.9683 28.4628C71.4126 28.4628 71.7551 28.5846 71.9956 28.8281C72.236 29.0714 72.3561 29.4335 72.3561 29.9133V32.8971H73.7221V29.7488C73.7221 28.9534 73.4998 28.3533 73.0555 27.9485C72.611 27.5437 72.021 27.3413 71.2853 27.3413C70.8553 27.3413 70.4693 27.4067 70.127 27.5369Z" fill="white"/>
<path d="M76.7544 27.8096C76.2918 28.1214 76.0606 28.5383 76.0606 29.0594C76.0606 29.4572 76.1716 29.7676 76.3939 29.9905C76.6161 30.2137 76.8783 30.3699 77.1807 30.4588C77.483 30.5478 77.8747 30.6268 78.3554 30.6953C78.8144 30.7638 79.1475 30.836 79.3553 30.9114C79.5627 30.9871 79.6666 31.1207 79.6666 31.3127C79.6666 31.7175 79.2586 31.9198 78.4426 31.9198C78.0858 31.9198 77.7233 31.87 77.3556 31.7706C76.9874 31.6712 76.6727 31.539 76.4103 31.3742L75.8859 32.3517C76.1552 32.5302 76.5159 32.6777 76.9676 32.7944C77.4192 32.9107 77.8819 32.9691 78.3554 32.9691C79.1714 32.9691 79.8159 32.8148 80.2896 32.5061C80.763 32.1976 81 31.786 81 31.2717C81 30.8805 80.8923 30.5788 80.6775 30.3662C80.4625 30.1538 80.2057 30.0028 79.9071 29.9133C79.6085 29.8244 79.2258 29.7455 78.7596 29.6768C78.2935 29.6015 77.9491 29.5206 77.727 29.4348C77.5046 29.3492 77.3938 29.2035 77.3938 28.9979C77.3938 28.8127 77.4977 28.6635 77.7053 28.5503C77.9129 28.4369 78.2168 28.3807 78.6178 28.3807C79.2368 28.3807 79.7941 28.5178 80.2896 28.7919L80.814 27.8146C80.5592 27.6707 80.2312 27.556 79.8306 27.4699C79.4299 27.3842 79.0292 27.3413 78.6286 27.3413C77.8418 27.3413 77.2171 27.4974 76.7544 27.8096Z" fill="white"/>
<path d="M21.4287 -0.240905H20.6068L14.3272 12.4359L8.22344 -0.240905H7.28452H3V20.7111H7.28452V6.73857L12.9186 18.4807H15.9118L21.4287 7.17937V20.7111H25.7128V-0.240905H21.4287Z" fill="white"/>
<path d="M76.0096 -0.240905V13.4922L65.7976 -0.240905H61.5134V20.7111H65.7976V6.96843L76.0096 20.7111H80.646V-0.240905H76.0096Z" fill="white"/>
<path d="M38.3569 17.4097C34.759 17.4097 31.8425 14.4931 31.8425 10.8953C31.8425 7.29739 34.759 4.38065 38.3569 4.38065C41.9547 4.38065 44.8713 7.29739 44.8713 10.8953C44.8713 14.4931 41.9547 17.4097 38.3569 17.4097ZM38.3569 -0.241033C32.2064 -0.241033 27.2206 4.74483 27.2206 10.8953C27.2206 17.0455 32.2064 22.0314 38.3569 22.0314C44.5073 22.0314 49.4932 17.0455 49.4932 10.8953C49.4932 4.74483 44.5073 -0.241033 38.3569 -0.241033Z" fill="white"/>
<path d="M48.8692 17.4096C45.2713 17.4096 42.3548 14.4931 42.3548 10.8952C42.3548 7.29733 45.2713 4.38059 48.8692 4.38059C52.4671 4.38059 55.3836 7.29733 55.3836 10.8952C55.3836 14.4931 52.4671 17.4096 48.8692 17.4096ZM48.8692 -0.241094C42.7188 -0.241094 37.7329 4.74477 37.7329 10.8952C37.7329 17.0454 42.7188 22.0313 48.8692 22.0313C55.0196 22.0313 60.0055 17.0454 60.0055 10.8952C60.0055 4.74477 55.0196 -0.241094 48.8692 -0.241094Z" fill="white"/>
<path d="M43.6131 14.7425C42.6874 16.005 41.3183 16.9211 39.735 17.2623C40.7358 18.6955 42.0639 19.883 43.6131 20.7139C45.1622 19.883 46.4903 18.6955 47.4911 17.2623C45.9078 16.9211 44.5388 16.005 43.6131 14.7425Z" fill="white"/>
</g>
<defs>
<clipPath id="clip0_18_253">
<rect width="84" height="33" fill="white"/>
</clipPath>
</defs>
</svg>
