<svg width="84" height="32" viewBox="0 0 84 32" fill="none" xmlns="http://www.w3.org/2000/svg">
<path d="M6.6709 24.9761H8.0366V31.9009H6.6709V24.9761Z" fill="url(#paint0_linear_18_173)"/>
<path d="M12.565 26.0644H10.1274V24.9761H16.3687V26.0644H13.9311V31.9009H12.565V26.0644Z" fill="url(#paint1_linear_18_173)"/>
<path d="M23.2667 25.1542C22.8215 25.3388 22.489 25.5879 22.2683 25.9013C22.0476 26.2146 21.9374 26.5624 21.9374 26.9448C21.9374 27.3997 22.0616 27.7608 22.3103 28.028C22.5591 28.2953 22.8568 28.4914 23.2034 28.6165C23.5503 28.7421 24.0036 28.8675 24.5644 28.9928C24.9635 29.0852 25.2787 29.1674 25.5099 29.2398C25.7409 29.3128 25.9317 29.4129 26.0826 29.5417C26.2329 29.6702 26.3085 29.8332 26.3085 30.0313C26.3085 30.3018 26.1735 30.5195 25.9038 30.6843C25.6341 30.8491 25.226 30.9316 24.6799 30.9316C24.2384 30.9316 23.7988 30.861 23.361 30.7187C22.9232 30.5772 22.5536 30.394 22.2526 30.1698L21.7798 31.1691C22.0881 31.4196 22.5065 31.6209 23.0354 31.7724C23.5642 31.924 24.1124 32 24.6799 32C25.3243 32 25.8705 31.9076 26.3189 31.723C26.7672 31.5383 27.1018 31.2912 27.3225 30.9809C27.543 30.671 27.6534 30.3251 27.6534 29.9424C27.6534 29.4939 27.5288 29.1377 27.2802 28.8739C27.0317 28.6099 26.7322 28.414 26.3818 28.2854C26.0317 28.1568 25.5834 28.0331 25.037 27.9144C24.6377 27.822 24.3225 27.7398 24.0912 27.667C23.8603 27.5944 23.6692 27.4955 23.5186 27.3702C23.3681 27.2449 23.2928 27.0833 23.2928 26.8854C23.2928 26.602 23.4243 26.3743 23.6868 26.2027C23.9495 26.0314 24.3504 25.9457 24.89 25.9457C25.2193 25.9457 25.5587 25.992 25.9092 26.0842C26.2592 26.1766 26.5954 26.3116 26.9177 26.4897L27.3486 25.4906C27.0334 25.293 26.6585 25.1411 26.2244 25.0354C25.79 24.9303 25.3485 24.8771 24.9004 24.8771C24.2559 24.8771 23.7112 24.9695 23.2667 25.1542Z" fill="url(#paint2_linear_18_173)"/>
<path d="M30.921 26.9053C30.4656 27.1361 30.1103 27.456 29.8545 27.8647C29.5986 28.2739 29.4711 28.7387 29.4711 29.2599C29.4711 29.7807 29.5986 30.2473 29.8545 30.6595C30.1103 31.0717 30.4656 31.3933 30.921 31.6242C31.3763 31.8551 31.8878 31.9703 32.4551 31.9703C33.0293 31.9703 33.5442 31.8551 33.9998 31.6242C34.4547 31.3933 34.8106 31.0717 35.0662 30.6595C35.3219 30.2473 35.4498 29.7807 35.4498 29.2599C35.4498 28.7387 35.3219 28.2739 35.0662 27.8647C34.8106 27.456 34.4547 27.1361 33.9998 26.9053C33.5442 26.6746 33.0293 26.5589 32.4551 26.5589C31.8878 26.5589 31.3763 26.6746 30.921 26.9053ZM31.2624 30.4569C30.9507 30.1535 30.7949 29.7542 30.7949 29.2599C30.7949 28.765 30.9507 28.3661 31.2624 28.0627C31.5742 27.7594 31.9717 27.6076 32.4551 27.6076C32.9385 27.6076 33.3376 27.7594 33.653 28.0627C33.968 28.3661 34.1258 28.765 34.1258 29.2599C34.1258 29.7542 33.968 30.1535 33.653 30.4569C33.3376 30.76 32.9385 30.9116 32.4551 30.9116C31.9717 30.9116 31.5742 30.76 31.2624 30.4569Z" fill="url(#paint3_linear_18_173)"/>
<path d="M37.7611 31.9011H39.0745V24.5607H37.7611V31.9011Z" fill="url(#paint4_linear_18_173)"/>
<path d="M45.9669 26.6182V29.2894C45.9669 29.8037 45.8285 30.198 45.552 30.4717C45.2752 30.7452 44.902 30.882 44.433 30.882C44.0127 30.882 43.6886 30.765 43.4611 30.5309C43.2333 30.2968 43.1197 29.9424 43.1197 29.4675V26.6182H41.8062V29.6355C41.8062 30.407 42.0217 30.9892 42.4523 31.3816C42.8832 31.774 43.4733 31.9703 44.2227 31.9703C44.587 31.9703 44.927 31.9061 45.242 31.7773C45.5572 31.6485 45.8201 31.4657 46.0303 31.2284V31.901H47.2805V26.6182H45.9669Z" fill="url(#paint5_linear_18_173)"/>
<path d="M50.2331 25.4509V26.658H49.3086V27.6472H50.2331V30.1897C50.2331 30.7701 50.4013 31.2118 50.7375 31.5152C51.0738 31.8185 51.5499 31.9703 52.1665 31.9703C52.4116 31.9703 52.6446 31.9406 52.8653 31.8812C53.0857 31.8219 53.2732 31.7328 53.4274 31.6141L53.0596 30.7335C52.8635 30.8788 52.6183 30.9514 52.3241 30.9514C52.0718 30.9514 51.8791 30.8837 51.7464 30.7484C51.6132 30.6134 51.5464 30.4171 51.5464 30.1601V27.6472H53.049V26.658H51.5464V25.4509H50.2331Z" fill="url(#paint6_linear_18_173)"/>
<path d="M55.6235 24.4764C55.4622 24.6187 55.3816 24.795 55.3816 25.0058C55.3816 25.2169 55.4622 25.3932 55.6235 25.5351C55.7844 25.6769 55.9841 25.7476 56.2222 25.7476C56.4674 25.7476 56.6689 25.6734 56.8264 25.5252C56.984 25.3768 57.0627 25.1939 57.0627 24.9761C57.0627 24.7718 56.9823 24.602 56.8211 24.4667C56.66 24.3316 56.4602 24.2639 56.2222 24.2639C55.9841 24.2639 55.7844 24.3349 55.6235 24.4764ZM55.5602 31.9011H56.8736V26.6183H55.5602V31.9011Z" fill="url(#paint7_linear_18_173)"/>
<path d="M60.6353 26.9053C60.1798 27.1361 59.8243 27.456 59.5687 27.8647C59.3129 28.2739 59.1853 28.7387 59.1853 29.2599C59.1853 29.7807 59.3129 30.2473 59.5687 30.6595C59.8243 31.0717 60.1798 31.3933 60.6353 31.6242C61.0904 31.8551 61.6019 31.9703 62.1694 31.9703C62.7436 31.9703 63.2584 31.8551 63.7139 31.6242C64.169 31.3933 64.5246 31.0717 64.7803 30.6595C65.0359 30.2473 65.164 29.7807 65.164 29.2599C65.164 28.7387 65.0359 28.2739 64.7803 27.8647C64.5246 27.456 64.169 27.1361 63.7139 26.9053C63.2584 26.6746 62.7436 26.5589 62.1694 26.5589C61.6019 26.5589 61.0904 26.6746 60.6353 26.9053ZM60.9766 30.4569C60.6648 30.1535 60.509 29.7542 60.509 29.2599C60.509 28.765 60.6648 28.3661 60.9766 28.0627C61.2885 27.7594 61.686 27.6076 62.1694 27.6076C62.6526 27.6076 63.0519 27.7594 63.3671 28.0627C63.6822 28.3661 63.84 28.765 63.84 29.2599C63.84 29.7542 63.6822 30.1535 63.3671 30.4569C63.0519 30.76 62.6526 30.9116 62.1694 30.9116C61.686 30.9116 61.2885 30.76 60.9766 30.4569Z" fill="url(#paint8_linear_18_173)"/>
<path d="M69.5452 26.7471C69.2157 26.8722 68.9427 27.0568 68.7255 27.3009V26.6183H67.4752V31.9011H68.7886V29.2301C68.7886 28.7156 68.9287 28.3216 69.2089 28.0479C69.4888 27.7743 69.8708 27.6373 70.3542 27.6373C70.7814 27.6373 71.1107 27.7545 71.3419 27.9886C71.573 28.2225 71.6886 28.5707 71.6886 29.032V31.9011H73.002V28.8739C73.002 28.1091 72.7882 27.532 72.361 27.1428C71.9336 26.7536 71.3663 26.5589 70.6589 26.5589C70.2455 26.5589 69.8743 26.6218 69.5452 26.7471Z" fill="url(#paint9_linear_18_173)"/>
<path d="M75.9177 27.0092C75.4728 27.309 75.2505 27.7099 75.2505 28.211C75.2505 28.5935 75.3573 28.8919 75.571 29.1062C75.7846 29.3208 76.0367 29.471 76.3276 29.5565C76.6182 29.642 76.9949 29.718 77.457 29.7839C77.8984 29.8498 78.2187 29.9192 78.4185 29.9917C78.618 30.0645 78.7178 30.1929 78.7178 30.3775C78.7178 30.7668 78.3256 30.9613 77.541 30.9613C77.1979 30.9613 76.8493 30.9134 76.4958 30.8178C76.1417 30.7222 75.839 30.5952 75.5868 30.4367L75.0825 31.3766C75.3415 31.5482 75.6883 31.6901 76.1226 31.8023C76.5569 31.9141 77.0018 31.9703 77.457 31.9703C78.2417 31.9703 78.8614 31.8219 79.3169 31.5251C79.772 31.2284 79.9999 30.8327 79.9999 30.3381C79.9999 29.962 79.8964 29.6719 79.6899 29.4675C79.4832 29.2632 79.2362 29.118 78.9491 29.032C78.662 28.9465 78.294 28.8707 77.8457 28.8046C77.3975 28.7322 77.0664 28.6544 76.8528 28.5719C76.639 28.4896 76.5325 28.3495 76.5325 28.1518C76.5325 27.9737 76.6323 27.8302 76.832 27.7214C77.0316 27.6124 77.3238 27.5583 77.7093 27.5583C78.3046 27.5583 78.8404 27.6901 79.3169 27.9537L79.8211 27.014C79.5761 26.8756 79.2607 26.7654 78.8756 26.6825C78.4902 26.6002 78.1049 26.5589 77.7198 26.5589C76.9632 26.5589 76.3625 26.709 75.9177 27.0092Z" fill="url(#paint10_linear_18_173)"/>
<path d="M22.7199 0.0375969H21.9296L15.8915 12.2268L10.0225 0.0375969H9.11973H5V20.1838H9.11973V6.74863L14.5371 18.0391H17.4152L22.7199 7.17248V20.1838H26.8393V0.0375969H22.7199Z" fill="url(#paint11_linear_18_173)"/>
<path d="M75.2015 0.0375969V13.2425L65.3822 0.0375969H61.2628V20.1838H65.3822V6.96965L75.2015 20.1838H79.6596V0.0375969H75.2015Z" fill="url(#paint12_linear_18_173)"/>
<path d="M38.997 17.0093C35.5375 17.0093 32.7332 14.2049 32.7332 10.7454C32.7332 7.28596 35.5375 4.4814 38.997 4.4814C42.4565 4.4814 45.2609 7.28596 45.2609 10.7454C45.2609 14.2049 42.4565 17.0093 38.997 17.0093ZM38.997 0.0374712C33.0832 0.0374712 28.2891 4.83157 28.2891 10.7454C28.2891 16.6591 33.0832 21.4532 38.997 21.4532C44.9109 21.4532 49.705 16.6591 49.705 10.7454C49.705 4.83157 44.9109 0.0374712 38.997 0.0374712Z" fill="#59CAF5"/>
<path d="M49.1049 17.0093C45.6455 17.0093 42.8411 14.2049 42.8411 10.7454C42.8411 7.28596 45.6455 4.4814 49.1049 4.4814C52.5644 4.4814 55.3688 7.28596 55.3688 10.7454C55.3688 14.2049 52.5644 17.0093 49.1049 17.0093ZM49.1049 0.0374712C43.1911 0.0374712 38.397 4.83157 38.397 10.7454C38.397 16.6591 43.1911 21.4532 49.1049 21.4532C55.0188 21.4532 59.8129 16.6591 59.8129 10.7454C59.8129 4.83157 55.0188 0.0374712 49.1049 0.0374712Z" fill="#99DEF9"/>
<path d="M44.0511 14.4447C43.161 15.6587 41.8446 16.5396 40.3221 16.8677C41.2845 18.2457 42.5615 19.3876 44.0511 20.1865C45.5406 19.3876 46.8176 18.2457 47.78 16.8677C46.2576 16.5396 44.9412 15.6587 44.0511 14.4447Z" fill="#59CAF5"/>
<defs>
<linearGradient id="paint0_linear_18_173" x1="80.5894" y1="18.3975" x2="15.6402" y2="35.525" gradientUnits="userSpaceOnUse">
<stop stop-color="#00ADEF"/>
<stop offset="1" stop-color="#2E3192"/>
</linearGradient>
<linearGradient id="paint1_linear_18_173" x1="80.5893" y1="18.3975" x2="15.6401" y2="35.525" gradientUnits="userSpaceOnUse">
<stop stop-color="#00ADEF"/>
<stop offset="1" stop-color="#2E3192"/>
</linearGradient>
<linearGradient id="paint2_linear_18_173" x1="80.5894" y1="18.3975" x2="15.6402" y2="35.5251" gradientUnits="userSpaceOnUse">
<stop stop-color="#00ADEF"/>
<stop offset="1" stop-color="#2E3192"/>
</linearGradient>
<linearGradient id="paint3_linear_18_173" x1="80.5894" y1="18.3974" x2="15.6402" y2="35.525" gradientUnits="userSpaceOnUse">
<stop stop-color="#00ADEF"/>
<stop offset="1" stop-color="#2E3192"/>
</linearGradient>
<linearGradient id="paint4_linear_18_173" x1="80.5896" y1="18.3975" x2="15.6402" y2="35.5251" gradientUnits="userSpaceOnUse">
<stop stop-color="#00ADEF"/>
<stop offset="1" stop-color="#2E3192"/>
</linearGradient>
<linearGradient id="paint5_linear_18_173" x1="80.5894" y1="18.3974" x2="15.6401" y2="35.525" gradientUnits="userSpaceOnUse">
<stop stop-color="#00ADEF"/>
<stop offset="1" stop-color="#2E3192"/>
</linearGradient>
<linearGradient id="paint6_linear_18_173" x1="80.5894" y1="18.3974" x2="15.6402" y2="35.525" gradientUnits="userSpaceOnUse">
<stop stop-color="#00ADEF"/>
<stop offset="1" stop-color="#2E3192"/>
</linearGradient>
<linearGradient id="paint7_linear_18_173" x1="80.5893" y1="18.3975" x2="15.6402" y2="35.525" gradientUnits="userSpaceOnUse">
<stop stop-color="#00ADEF"/>
<stop offset="1" stop-color="#2E3192"/>
</linearGradient>
<linearGradient id="paint8_linear_18_173" x1="80.5894" y1="18.3974" x2="15.6402" y2="35.525" gradientUnits="userSpaceOnUse">
<stop stop-color="#00ADEF"/>
<stop offset="1" stop-color="#2E3192"/>
</linearGradient>
<linearGradient id="paint9_linear_18_173" x1="80.5893" y1="18.3975" x2="15.6401" y2="35.525" gradientUnits="userSpaceOnUse">
<stop stop-color="#00ADEF"/>
<stop offset="1" stop-color="#2E3192"/>
</linearGradient>
<linearGradient id="paint10_linear_18_173" x1="80.5893" y1="18.3974" x2="15.6401" y2="35.525" gradientUnits="userSpaceOnUse">
<stop stop-color="#00ADEF"/>
<stop offset="1" stop-color="#2E3192"/>
</linearGradient>
<linearGradient id="paint11_linear_18_173" x1="14.7334" y1="-3.81317" x2="17.3643" y2="27.0658" gradientUnits="userSpaceOnUse">
<stop stop-color="#00ADEF"/>
<stop offset="1" stop-color="#2E3192"/>
</linearGradient>
<linearGradient id="paint12_linear_18_173" x1="68.8817" y1="-8.42671" x2="71.5127" y2="22.4523" gradientUnits="userSpaceOnUse">
<stop stop-color="#00ADEF"/>
<stop offset="1" stop-color="#2E3192"/>
</linearGradient>
</defs>
</svg>
