<svg width="567" height="242" viewBox="0 0 567 242" fill="none" xmlns="http://www.w3.org/2000/svg">
<path d="M12.868 188.932H23.1746V241.192H12.868V188.932Z" fill="url(#paint0_linear_13_3)"/>
<path d="M57.3506 197.145H38.9547V188.932H86.056V197.145H67.66V241.192H57.3506V197.145Z" fill="url(#paint1_linear_13_3)"/>
<path d="M138.113 190.276C134.753 191.669 132.244 193.549 130.579 195.915C128.913 198.279 128.081 200.904 128.081 203.789C128.081 207.223 129.019 209.948 130.896 211.964C132.773 213.981 135.02 215.461 137.636 216.405C140.253 217.353 143.675 218.3 147.907 219.245C150.919 219.943 153.297 220.563 155.043 221.109C156.785 221.66 158.225 222.416 159.364 223.388C160.499 224.357 161.069 225.588 161.069 227.083C161.069 229.124 160.051 230.767 158.015 232.011C155.98 233.255 152.9 233.877 148.779 233.877C145.447 233.877 142.129 233.344 138.825 232.271C135.521 231.203 132.732 229.82 130.46 228.128L126.892 235.669C129.219 237.56 132.376 239.079 136.368 240.223C140.359 241.367 144.496 241.94 148.779 241.94C153.641 241.94 157.764 241.243 161.148 239.849C164.531 238.456 167.056 236.591 168.721 234.249C170.385 231.911 171.219 229.3 171.219 226.412C171.219 223.027 170.279 220.339 168.403 218.348C166.527 216.356 164.267 214.877 161.623 213.907C158.98 212.936 155.597 212.003 151.473 211.107C148.46 210.409 146.081 209.789 144.336 209.24C142.593 208.692 141.151 207.945 140.015 207C138.879 206.055 138.311 204.835 138.311 203.341C138.311 201.203 139.303 199.484 141.284 198.189C143.267 196.896 146.292 196.249 150.364 196.249C152.849 196.249 155.411 196.599 158.056 197.295C160.697 197.992 163.235 199.011 165.667 200.355L168.919 192.815C166.54 191.324 163.711 190.177 160.435 189.38C157.156 188.587 153.824 188.185 150.443 188.185C145.579 188.185 141.468 188.883 138.113 190.276Z" fill="url(#paint2_linear_13_3)"/>
<path d="M195.879 203.492C192.441 205.233 189.76 207.648 187.829 210.732C185.899 213.82 184.936 217.328 184.936 221.261C184.936 225.192 185.899 228.713 187.829 231.824C189.76 234.935 192.441 237.361 195.879 239.104C199.315 240.847 203.175 241.716 207.456 241.716C211.789 241.716 215.675 240.847 219.113 239.104C222.547 237.361 225.232 234.935 227.161 231.824C229.091 228.713 230.056 225.192 230.056 221.261C230.056 217.328 229.091 213.82 227.161 210.732C225.232 207.648 222.547 205.233 219.113 203.492C215.675 201.751 211.789 200.877 207.456 200.877C203.175 200.877 199.315 201.751 195.879 203.492ZM198.455 230.295C196.103 228.005 194.927 224.992 194.927 221.261C194.927 217.527 196.103 214.516 198.455 212.227C200.808 209.937 203.808 208.792 207.456 208.792C211.104 208.792 214.116 209.937 216.496 212.227C218.873 214.516 220.064 217.527 220.064 221.261C220.064 224.992 218.873 228.005 216.496 230.295C214.116 232.583 211.104 233.727 207.456 233.727C203.808 233.727 200.808 232.583 198.455 230.295Z" fill="url(#paint3_linear_13_3)"/>
<path d="M247.499 241.193H257.411V185.797H247.499V241.193Z" fill="url(#paint4_linear_13_3)"/>
<path d="M309.427 201.325V221.484C309.427 225.365 308.383 228.341 306.296 230.407C304.207 232.471 301.391 233.503 297.851 233.503C294.679 233.503 292.233 232.62 290.516 230.853C288.797 229.087 287.94 226.412 287.94 222.828V201.325H278.027V224.096C278.027 229.919 279.653 234.312 282.903 237.273C286.155 240.235 290.608 241.716 296.264 241.716C299.013 241.716 301.579 241.232 303.956 240.26C306.335 239.288 308.319 237.908 309.905 236.117V241.193H319.34V201.325H309.427Z" fill="url(#paint5_linear_13_3)"/>
<path d="M341.623 192.516V201.625H334.645V209.091H341.623V228.279C341.623 232.659 342.892 235.992 345.429 238.281C347.967 240.571 351.56 241.716 356.213 241.716C358.063 241.716 359.821 241.492 361.487 241.044C363.151 240.596 364.565 239.924 365.729 239.028L362.953 232.383C361.473 233.479 359.623 234.027 357.403 234.027C355.499 234.027 354.044 233.516 353.043 232.495C352.037 231.476 351.533 229.995 351.533 228.055V209.091H362.873V201.625H351.533V192.516H341.623Z" fill="url(#paint6_linear_13_3)"/>
<path d="M382.303 185.161C381.085 186.235 380.477 187.565 380.477 189.156C380.477 190.749 381.085 192.08 382.303 193.151C383.517 194.221 385.024 194.755 386.821 194.755C388.672 194.755 390.192 194.195 391.381 193.076C392.571 191.956 393.164 190.576 393.164 188.932C393.164 187.391 392.557 186.109 391.341 185.088C390.125 184.068 388.617 183.557 386.821 183.557C385.024 183.557 383.517 184.093 382.303 185.161ZM381.825 241.193H391.737V201.325H381.825V241.193Z" fill="url(#paint7_linear_13_3)"/>
<path d="M420.125 203.492C416.688 205.233 414.005 207.648 412.076 210.732C410.145 213.82 409.183 217.328 409.183 221.261C409.183 225.192 410.145 228.713 412.076 231.824C414.005 234.935 416.688 237.361 420.125 239.104C423.56 240.847 427.42 241.716 431.703 241.716C436.036 241.716 439.921 240.847 443.359 239.104C446.793 237.361 449.477 234.935 451.407 231.824C453.336 228.713 454.303 225.192 454.303 221.261C454.303 217.328 453.336 213.82 451.407 210.732C449.477 207.648 446.793 205.233 443.359 203.492C439.921 201.751 436.036 200.877 431.703 200.877C427.42 200.877 423.56 201.751 420.125 203.492ZM422.701 230.295C420.348 228.005 419.172 224.992 419.172 221.261C419.172 217.527 420.348 214.516 422.701 212.227C425.055 209.937 428.055 208.792 431.703 208.792C435.349 208.792 438.363 209.937 440.741 212.227C443.12 214.516 444.311 217.527 444.311 221.261C444.311 224.992 443.12 228.005 440.741 230.295C438.363 232.583 435.349 233.727 431.703 233.727C428.055 233.727 425.055 232.583 422.701 230.295Z" fill="url(#paint8_linear_13_3)"/>
<path d="M487.367 202.297C484.88 203.241 482.82 204.635 481.181 206.477V201.325H471.745V241.193H481.657V221.036C481.657 217.153 482.715 214.18 484.829 212.115C486.941 210.049 489.824 209.016 493.472 209.016C496.696 209.016 499.181 209.9 500.927 211.667C502.671 213.432 503.543 216.06 503.543 219.541V241.193H513.455V218.348C513.455 212.576 511.841 208.221 508.617 205.284C505.392 202.347 501.111 200.877 495.772 200.877C492.652 200.877 489.851 201.352 487.367 202.297Z" fill="url(#paint9_linear_13_3)"/>
<path d="M535.459 204.276C532.101 206.539 530.424 209.564 530.424 213.345C530.424 216.232 531.229 218.484 532.843 220.101C534.455 221.721 536.357 222.855 538.552 223.5C540.745 224.145 543.588 224.719 547.076 225.216C550.407 225.713 552.824 226.237 554.332 226.784C555.837 227.333 556.591 228.303 556.591 229.696C556.591 232.633 553.631 234.101 547.709 234.101C545.12 234.101 542.489 233.74 539.821 233.019C537.149 232.297 534.865 231.339 532.961 230.143L529.156 237.236C531.111 238.531 533.728 239.601 537.005 240.448C540.283 241.292 543.64 241.716 547.076 241.716C552.997 241.716 557.675 240.596 561.112 238.356C564.547 236.117 566.267 233.131 566.267 229.399C566.267 226.56 565.485 224.371 563.927 222.828C562.367 221.287 560.503 220.191 558.336 219.541C556.169 218.896 553.392 218.324 550.009 217.825C546.627 217.279 544.128 216.692 542.516 216.069C540.903 215.448 540.099 214.391 540.099 212.899C540.099 211.555 540.852 210.472 542.359 209.651C543.865 208.828 546.071 208.42 548.98 208.42C553.472 208.42 557.516 209.415 561.112 211.404L564.917 204.312C563.068 203.268 560.688 202.436 557.781 201.811C554.873 201.189 551.965 200.877 549.059 200.877C543.349 200.877 538.816 202.011 535.459 204.276Z" fill="url(#paint10_linear_13_3)"/>
<path d="M133.987 0.726734H128.023L82.4547 92.716L38.1627 0.726734H31.3493H0.258667V152.765H31.3493V51.3734L72.2333 136.58H93.9533L133.987 54.5721V152.765H165.075V0.726734H133.987Z" fill="url(#paint11_linear_13_3)"/>
<path d="M530.053 0.726734V100.381L455.949 0.726734H424.861V152.765H455.949V53.0414L530.053 152.765H563.697V0.726734H530.053Z" fill="url(#paint12_linear_13_3)"/>
<path d="M256.827 128.809C230.719 128.809 209.555 107.645 209.555 81.5367C209.555 55.4287 230.719 34.2634 256.827 34.2634C282.935 34.2634 304.099 55.4287 304.099 81.5367C304.099 107.645 282.935 128.809 256.827 128.809ZM256.827 0.726069C212.196 0.726069 176.016 36.9061 176.016 81.5367C176.016 126.166 212.196 162.346 256.827 162.346C301.457 162.346 337.637 126.166 337.637 81.5367C337.637 36.9061 301.457 0.726069 256.827 0.726069Z" fill="#59CAF5"/>
<path d="M333.109 128.809C307.001 128.809 285.837 107.645 285.837 81.5367C285.837 55.4287 307.001 34.2634 333.109 34.2634C359.217 34.2634 380.381 55.4287 380.381 81.5367C380.381 107.645 359.217 128.809 333.109 128.809ZM333.109 0.726069C288.478 0.726069 252.298 36.9061 252.298 81.5367C252.298 126.166 288.478 162.346 333.109 162.346C377.74 162.346 413.92 126.166 413.92 81.5367C413.92 36.9061 377.74 0.726069 333.109 0.726069Z" fill="#99DEF9"/>
<path d="M294.968 109.455C288.25 118.616 278.316 125.264 266.826 127.74C274.089 138.14 283.726 146.757 294.968 152.787C306.209 146.757 315.846 138.14 323.109 127.74C311.62 125.264 301.685 118.616 294.968 109.455Z" fill="#59CAF5"/>
<defs>
<linearGradient id="paint0_linear_13_3" x1="570.714" y1="139.285" x2="80.5575" y2="268.543" gradientUnits="userSpaceOnUse">
<stop stop-color="#00ADEF"/>
<stop offset="1" stop-color="#2E3192"/>
</linearGradient>
<linearGradient id="paint1_linear_13_3" x1="570.714" y1="139.285" x2="80.5576" y2="268.543" gradientUnits="userSpaceOnUse">
<stop stop-color="#00ADEF"/>
<stop offset="1" stop-color="#2E3192"/>
</linearGradient>
<linearGradient id="paint2_linear_13_3" x1="570.715" y1="139.285" x2="80.5576" y2="268.543" gradientUnits="userSpaceOnUse">
<stop stop-color="#00ADEF"/>
<stop offset="1" stop-color="#2E3192"/>
</linearGradient>
<linearGradient id="paint3_linear_13_3" x1="570.715" y1="139.285" x2="80.5576" y2="268.543" gradientUnits="userSpaceOnUse">
<stop stop-color="#00ADEF"/>
<stop offset="1" stop-color="#2E3192"/>
</linearGradient>
<linearGradient id="paint4_linear_13_3" x1="570.716" y1="139.285" x2="80.5573" y2="268.543" gradientUnits="userSpaceOnUse">
<stop stop-color="#00ADEF"/>
<stop offset="1" stop-color="#2E3192"/>
</linearGradient>
<linearGradient id="paint5_linear_13_3" x1="570.715" y1="139.285" x2="80.5575" y2="268.543" gradientUnits="userSpaceOnUse">
<stop stop-color="#00ADEF"/>
<stop offset="1" stop-color="#2E3192"/>
</linearGradient>
<linearGradient id="paint6_linear_13_3" x1="570.715" y1="139.285" x2="80.5577" y2="268.543" gradientUnits="userSpaceOnUse">
<stop stop-color="#00ADEF"/>
<stop offset="1" stop-color="#2E3192"/>
</linearGradient>
<linearGradient id="paint7_linear_13_3" x1="570.714" y1="139.285" x2="80.558" y2="268.542" gradientUnits="userSpaceOnUse">
<stop stop-color="#00ADEF"/>
<stop offset="1" stop-color="#2E3192"/>
</linearGradient>
<linearGradient id="paint8_linear_13_3" x1="570.715" y1="139.285" x2="80.5576" y2="268.543" gradientUnits="userSpaceOnUse">
<stop stop-color="#00ADEF"/>
<stop offset="1" stop-color="#2E3192"/>
</linearGradient>
<linearGradient id="paint9_linear_13_3" x1="570.715" y1="139.285" x2="80.5578" y2="268.543" gradientUnits="userSpaceOnUse">
<stop stop-color="#00ADEF"/>
<stop offset="1" stop-color="#2E3192"/>
</linearGradient>
<linearGradient id="paint10_linear_13_3" x1="570.715" y1="139.285" x2="80.5575" y2="268.543" gradientUnits="userSpaceOnUse">
<stop stop-color="#00ADEF"/>
<stop offset="1" stop-color="#2E3192"/>
</linearGradient>
<linearGradient id="paint11_linear_13_3" x1="73.7142" y1="-28.3342" x2="93.5693" y2="204.703" gradientUnits="userSpaceOnUse">
<stop stop-color="#00ADEF"/>
<stop offset="1" stop-color="#2E3192"/>
</linearGradient>
<linearGradient id="paint12_linear_13_3" x1="482.36" y1="-63.1515" x2="502.215" y2="169.885" gradientUnits="userSpaceOnUse">
<stop stop-color="#00ADEF"/>
<stop offset="1" stop-color="#2E3192"/>
</linearGradient>
</defs>
</svg>
