<svg width="567" height="242" viewBox="0 0 567 242" fill="none" xmlns="http://www.w3.org/2000/svg">
<path d="M12.868 188.206H23.1746V240.466H12.868V188.206Z" fill="white"/>
<path d="M57.3506 196.419H38.9547V188.206H86.056V196.419H67.66V240.466H57.3506V196.419Z" fill="white"/>
<path d="M138.113 189.55C134.753 190.943 132.244 192.823 130.579 195.189C128.913 197.553 128.081 200.178 128.081 203.063C128.081 206.497 129.019 209.222 130.896 211.238C132.773 213.255 135.02 214.735 137.636 215.679C140.253 216.627 143.675 217.574 147.907 218.519C150.919 219.217 153.297 219.837 155.043 220.383C156.785 220.934 158.225 221.69 159.364 222.662C160.499 223.631 161.069 224.862 161.069 226.357C161.069 228.398 160.051 230.041 158.015 231.285C155.98 232.529 152.9 233.151 148.779 233.151C145.447 233.151 142.129 232.618 138.825 231.545C135.521 230.477 132.732 229.094 130.46 227.402L126.892 234.943C129.219 236.834 132.376 238.353 136.368 239.497C140.359 240.641 144.496 241.214 148.779 241.214C153.641 241.214 157.764 240.517 161.148 239.123C164.531 237.73 167.056 235.865 168.721 233.523C170.385 231.185 171.219 228.574 171.219 225.686C171.219 222.301 170.279 219.613 168.403 217.622C166.527 215.63 164.267 214.151 161.623 213.181C158.98 212.21 155.597 211.277 151.473 210.381C148.46 209.683 146.081 209.063 144.336 208.514C142.593 207.966 141.151 207.219 140.015 206.274C138.879 205.329 138.311 204.109 138.311 202.615C138.311 200.477 139.303 198.758 141.284 197.463C143.267 196.17 146.292 195.523 150.364 195.523C152.849 195.523 155.411 195.873 158.056 196.569C160.697 197.266 163.235 198.285 165.667 199.629L168.919 192.089C166.54 190.598 163.711 189.451 160.435 188.654C157.156 187.861 153.824 187.459 150.443 187.459C145.579 187.459 141.468 188.157 138.113 189.55Z" fill="white"/>
<path d="M195.879 202.766C192.441 204.507 189.76 206.922 187.829 210.006C185.899 213.094 184.936 216.602 184.936 220.535C184.936 224.466 185.899 227.987 187.829 231.098C189.76 234.209 192.441 236.635 195.879 238.378C199.315 240.121 203.175 240.99 207.456 240.99C211.789 240.99 215.675 240.121 219.113 238.378C222.547 236.635 225.232 234.209 227.161 231.098C229.091 227.987 230.056 224.466 230.056 220.535C230.056 216.602 229.091 213.094 227.161 210.006C225.232 206.922 222.547 204.507 219.113 202.766C215.675 201.025 211.789 200.151 207.456 200.151C203.175 200.151 199.315 201.025 195.879 202.766ZM198.455 229.569C196.103 227.279 194.927 224.266 194.927 220.535C194.927 216.801 196.103 213.79 198.455 211.501C200.808 209.211 203.808 208.066 207.456 208.066C211.104 208.066 214.116 209.211 216.496 211.501C218.873 213.79 220.064 216.801 220.064 220.535C220.064 224.266 218.873 227.279 216.496 229.569C214.116 231.857 211.104 233.001 207.456 233.001C203.808 233.001 200.808 231.857 198.455 229.569Z" fill="white"/>
<path d="M247.499 240.467H257.411V185.071H247.499V240.467Z" fill="white"/>
<path d="M309.427 200.599V220.758C309.427 224.639 308.383 227.615 306.296 229.681C304.207 231.745 301.391 232.777 297.851 232.777C294.679 232.777 292.233 231.894 290.516 230.127C288.797 228.361 287.94 225.686 287.94 222.102V200.599H278.027V223.37C278.027 229.193 279.653 233.586 282.903 236.547C286.155 239.509 290.608 240.99 296.264 240.99C299.013 240.99 301.579 240.506 303.956 239.534C306.335 238.562 308.319 237.182 309.905 235.391V240.467H319.34V200.599H309.427Z" fill="white"/>
<path d="M341.623 191.79V200.899H334.645V208.365H341.623V227.553C341.623 231.933 342.892 235.266 345.429 237.555C347.967 239.845 351.56 240.99 356.213 240.99C358.063 240.99 359.821 240.766 361.487 240.318C363.151 239.87 364.565 239.198 365.729 238.302L362.953 231.657C361.473 232.753 359.623 233.301 357.403 233.301C355.499 233.301 354.044 232.79 353.043 231.769C352.037 230.75 351.533 229.269 351.533 227.329V208.365H362.873V200.899H351.533V191.79H341.623Z" fill="white"/>
<path d="M382.303 184.435C381.085 185.509 380.477 186.839 380.477 188.43C380.477 190.023 381.085 191.354 382.303 192.425C383.517 193.495 385.024 194.029 386.821 194.029C388.672 194.029 390.192 193.469 391.381 192.35C392.571 191.23 393.164 189.85 393.164 188.206C393.164 186.665 392.557 185.383 391.341 184.362C390.125 183.342 388.617 182.831 386.821 182.831C385.024 182.831 383.517 183.367 382.303 184.435ZM381.825 240.467H391.737V200.599H381.825V240.467Z" fill="white"/>
<path d="M420.125 202.766C416.688 204.507 414.005 206.922 412.076 210.006C410.145 213.094 409.183 216.602 409.183 220.535C409.183 224.466 410.145 227.987 412.076 231.098C414.005 234.209 416.688 236.635 420.125 238.378C423.56 240.121 427.42 240.99 431.703 240.99C436.036 240.99 439.921 240.121 443.359 238.378C446.793 236.635 449.477 234.209 451.407 231.098C453.336 227.987 454.303 224.466 454.303 220.535C454.303 216.602 453.336 213.094 451.407 210.006C449.477 206.922 446.793 204.507 443.359 202.766C439.921 201.025 436.036 200.151 431.703 200.151C427.42 200.151 423.56 201.025 420.125 202.766ZM422.701 229.569C420.348 227.279 419.172 224.266 419.172 220.535C419.172 216.801 420.348 213.79 422.701 211.501C425.055 209.211 428.055 208.066 431.703 208.066C435.349 208.066 438.363 209.211 440.741 211.501C443.12 213.79 444.311 216.801 444.311 220.535C444.311 224.266 443.12 227.279 440.741 229.569C438.363 231.857 435.349 233.001 431.703 233.001C428.055 233.001 425.055 231.857 422.701 229.569Z" fill="white"/>
<path d="M487.367 201.571C484.88 202.515 482.82 203.909 481.181 205.751V200.599H471.745V240.467H481.657V220.31C481.657 216.427 482.715 213.454 484.829 211.389C486.941 209.323 489.824 208.29 493.472 208.29C496.696 208.29 499.181 209.174 500.927 210.941C502.671 212.706 503.543 215.334 503.543 218.815V240.467H513.455V217.622C513.455 211.85 511.841 207.495 508.617 204.558C505.392 201.621 501.111 200.151 495.772 200.151C492.652 200.151 489.851 200.626 487.367 201.571Z" fill="white"/>
<path d="M535.459 203.55C532.101 205.813 530.424 208.838 530.424 212.619C530.424 215.506 531.229 217.758 532.843 219.375C534.455 220.995 536.357 222.129 538.552 222.774C540.745 223.419 543.588 223.993 547.076 224.49C550.407 224.987 552.824 225.511 554.332 226.058C555.837 226.607 556.591 227.577 556.591 228.97C556.591 231.907 553.631 233.375 547.709 233.375C545.12 233.375 542.489 233.014 539.821 232.293C537.149 231.571 534.865 230.613 532.961 229.417L529.156 236.51C531.111 237.805 533.728 238.875 537.005 239.722C540.283 240.566 543.64 240.99 547.076 240.99C552.997 240.99 557.675 239.87 561.112 237.63C564.547 235.391 566.267 232.405 566.267 228.673C566.267 225.834 565.485 223.645 563.927 222.102C562.367 220.561 560.503 219.465 558.336 218.815C556.169 218.17 553.392 217.598 550.009 217.099C546.627 216.553 544.128 215.966 542.516 215.343C540.903 214.722 540.099 213.665 540.099 212.173C540.099 210.829 540.852 209.746 542.359 208.925C543.865 208.102 546.071 207.694 548.98 207.694C553.472 207.694 557.516 208.689 561.112 210.678L564.917 203.586C563.068 202.542 560.688 201.71 557.781 201.085C554.873 200.463 551.965 200.151 549.059 200.151C543.349 200.151 538.816 201.285 535.459 203.55Z" fill="white"/>
<path d="M133.987 0.000660104H128.023L82.4547 91.99L38.1627 0.000660104H31.3493H0.258667V152.039H31.3493V50.6473L72.2333 135.854H93.9533L133.987 53.846V152.039H165.075V0.000660104H133.987Z" fill="white"/>
<path d="M530.053 0.000660104V99.6553L455.949 0.000660104H424.861V152.039H455.949V52.3153L530.053 152.039H563.697V0.000660104H530.053Z" fill="white"/>
<path d="M256.827 128.083C230.719 128.083 209.555 106.919 209.555 80.8107C209.555 54.7027 230.719 33.5373 256.827 33.5373C282.935 33.5373 304.099 54.7027 304.099 80.8107C304.099 106.919 282.935 128.083 256.827 128.083ZM256.827 -4.81665e-06C212.196 -4.81665e-06 176.016 36.18 176.016 80.8107C176.016 125.44 212.196 161.62 256.827 161.62C301.457 161.62 337.637 125.44 337.637 80.8107C337.637 36.18 301.457 -4.81665e-06 256.827 -4.81665e-06Z" fill="white"/>
<path d="M333.109 128.083C307.001 128.083 285.837 106.919 285.837 80.8107C285.837 54.7027 307.001 33.5373 333.109 33.5373C359.217 33.5373 380.381 54.7027 380.381 80.8107C380.381 106.919 359.217 128.083 333.109 128.083ZM333.109 -4.81665e-06C288.478 -4.81665e-06 252.298 36.18 252.298 80.8107C252.298 125.44 288.478 161.62 333.109 161.62C377.74 161.62 413.92 125.44 413.92 80.8107C413.92 36.18 377.74 -4.81665e-06 333.109 -4.81665e-06Z" fill="white"/>
<path d="M294.968 108.729C288.25 117.89 278.316 124.538 266.826 127.014C274.089 137.414 283.726 146.031 294.968 152.061C306.209 146.031 315.846 137.414 323.109 127.014C311.62 124.538 301.685 117.89 294.968 108.729Z" fill="white"/>
</svg>
